<?xml version="1.0" standalone="no"?>
<!DOCTYPE svg PUBLIC "-//W3C//DTD SVG 20010904//EN"
 "http://www.w3.org/TR/2001/REC-SVG-20010904/DTD/svg10.dtd">
<svg version="1.0" xmlns="http://www.w3.org/2000/svg"
 width="1174.000000pt" height="1280.000000pt" viewBox="0 0 1174.000000 1280.000000"
 preserveAspectRatio="xMidYMid meet">
<metadata>
Created by potrace 1.15, written by Peter Selinger 2001-2017
</metadata>
<g transform="translate(0.000000,1280.000000) scale(0.100000,-0.100000)"
fill="#c9e9ff" stroke="none">
<path d="M6655 12793 c-185 -16 -417 -68 -608 -137 -347 -126 -719 -391 -963
-686 -20 -25 -39 -45 -43 -44 -3 0 -53 23 -111 51 -619 297 -1336 294 -1959
-8 -443 -214 -802 -557 -1026 -981 -166 -316 -246 -610 -270 -999 l-7 -106
-56 -17 c-663 -206 -1207 -712 -1456 -1354 -222 -572 -205 -1200 48 -1762 215
-478 600 -875 1070 -1104 105 -51 283 -123 352 -141 7 -2 13 -70 17 -202 4
-135 12 -237 27 -323 114 -656 504 -1227 1070 -1568 495 -299 1060 -397 1634
-286 301 59 641 207 881 384 l51 37 49 -45 c272 -246 622 -429 990 -517 208
-49 297 -59 520 -59 220 0 342 15 543 64 589 144 1113 541 1423 1080 30 52 60
107 67 123 13 31 19 32 104 12 231 -53 540 -62 798 -24 358 52 733 211 1034
439 312 234 572 569 726 933 60 140 117 339 147 507 22 126 26 175 27 370 1
279 -21 434 -94 680 -74 247 -226 538 -390 745 l-48 60 21 40 c55 108 122 294
156 438 49 203 56 262 56 527 0 287 -14 389 -81 622 -207 719 -759 1301 -1455
1533 -251 83 -427 114 -693 121 l-190 5 -22 64 c-243 694 -799 1225 -1510
1440 -247 75 -575 110 -829 88z"/>
<path d="M8701 3235 c-364 -80 -635 -340 -726 -699 -29 -115 -34 -297 -11
-406 74 -343 311 -607 641 -714 200 -64 388 -61 599 12 420 145 688 597 611
1032 -69 392 -346 686 -725 771 -102 22 -293 24 -389 4z"/>
<path d="M9785 1334 c-57 -9 -160 -46 -225 -82 -84 -46 -206 -167 -253 -252
-61 -111 -82 -197 -81 -330 0 -125 15 -191 65 -292 121 -246 375 -394 643
-375 168 12 307 76 427 196 136 136 194 277 194 471 0 194 -58 335 -194 471
-130 129 -264 188 -441 194 -58 2 -118 1 -135 -1z"/>
</g>
</svg>
