<?xml version="1.0" standalone="no"?>
<!DOCTYPE svg PUBLIC "-//W3C//DTD SVG 20010904//EN"
 "http://www.w3.org/TR/2001/REC-SVG-20010904/DTD/svg10.dtd">
<svg version="1.0" xmlns="http://www.w3.org/2000/svg"
 width="1238.000000pt" height="1280.000000pt" viewBox="0 0 1238.000000 1280.000000"
 preserveAspectRatio="xMidYMid meet">
<metadata>
Created by potrace 1.15, written by Peter Selinger 2001-2017
</metadata>
<g transform="translate(0.000000,1280.000000) scale(0.100000,-0.100000)"
fill="#c9e9ff" stroke="none">
<path d="M4710 12789 c-717 -63 -1363 -360 -1850 -848 -153 -153 -226 -242
-347 -424 -146 -218 -257 -458 -335 -726 l-33 -114 -85 -18 c-354 -74 -708
-236 -1005 -459 -489 -367 -839 -903 -981 -1500 -80 -333 -95 -746 -38 -1053
8 -45 19 -158 24 -251 25 -421 109 -738 291 -1097 129 -255 282 -464 493 -674
387 -386 882 -636 1427 -722 89 -14 172 -18 379 -18 282 0 383 10 584 59 l95
23 60 -121 c122 -245 293 -477 502 -682 144 -139 236 -214 392 -318 336 -223
726 -370 1152 -433 170 -25 602 -25 765 0 594 92 1072 314 1495 694 87 79 240
243 283 304 9 13 18 17 25 11 7 -5 53 -28 103 -50 824 -368 1802 -187 2439
452 424 425 662 1014 643 1592 l-3 111 66 37 c832 454 1275 1378 1085 2264 -9
41 -16 121 -16 182 0 138 -22 306 -59 451 -215 850 -967 1497 -1889 1625
l-122 17 -55 105 c-283 533 -737 898 -1294 1037 -566 142 -1190 6 -1649 -357
l-63 -50 -118 115 c-288 280 -604 485 -970 631 -430 172 -932 245 -1391 205z"/>
<path d="M8759 3880 c-170 -21 -358 -88 -486 -173 -465 -309 -590 -894 -286
-1344 22 -32 50 -89 63 -128 51 -156 126 -274 255 -400 155 -152 330 -243 549
-287 139 -27 338 -21 478 15 286 75 522 246 658 476 181 308 172 702 -25 1001
-30 45 -61 106 -69 134 -22 73 -90 211 -141 281 -114 160 -326 312 -520 373
-156 48 -342 69 -476 52z"/>
<path d="M10655 1800 c-269 -43 -520 -234 -616 -471 -103 -254 -65 -532 102
-741 16 -20 51 -81 79 -135 87 -173 207 -292 374 -373 118 -57 197 -74 351
-74 151 0 236 19 363 83 203 102 337 259 404 471 30 97 32 289 4 390 -24 90
-77 197 -134 272 -26 35 -66 101 -89 148 -127 259 -381 421 -682 435 -53 2
-123 0 -156 -5z"/>
</g>
</svg>
